<svg width="230" height="230" viewBox="0 0 230 230" fill="none" xmlns="http://www.w3.org/2000/svg">
<g filter="url(#filter0_d_36_12)">
<circle cx="115" cy="113" r="111" fill="white"/>
</g>
<g clip-path="url(#clip0_36_12)">
<path fill-rule="evenodd" clip-rule="evenodd" d="M105.599 29.247C96.165 30.517 87.4617 34.9649 84.4551 40.0532C81.1672 45.6162 79.7391 54.1303 81.5149 57.5817C82.7285 59.9418 84.1491 60.674 85.8374 59.809C88.6861 58.3491 90.8743 58.0632 94.7055 58.6508C99.334 59.3604 101.24 58.876 110.156 54.7264C118.402 50.8888 120.381 50.3125 126.315 50.0216C139.32 49.3835 151.448 55.5052 161.325 67.6913C165.938 73.3831 167.624 78.3239 168.29 88.1028C169.053 99.3089 166.894 106.421 161.734 109.695C158.129 111.983 157.134 112.088 140.381 111.965C124.249 111.846 113.795 112.315 108.652 113.388C106.973 113.738 102.033 115.03 97.6743 116.258C93.3157 117.487 86.5323 119.262 82.5993 120.204C78.6668 121.145 74.8556 122.22 74.1304 122.592C71.7301 123.823 71.7844 125.409 74.5222 134.049C75.9954 138.697 76.5936 139.986 77.8364 141.191C80.6085 143.879 83.476 144.322 89.0155 142.92C90.8725 142.45 94.2737 141.749 96.5739 141.363C98.9536 140.963 105.216 139.178 111.103 137.221C126.839 131.988 137.785 129.251 147.645 128.082C157.177 126.952 161.037 125.543 168.998 120.293C182.09 111.66 189.764 101.135 191.173 89.881C192.424 79.8893 187.858 71.2073 175.661 60.387C169.253 54.7026 169.66 54.8591 163.62 55.7593C160.881 56.1677 158.259 56.3821 157.794 56.2352C157.31 56.0826 156.614 55.1019 156.167 53.9409C154.945 50.7674 151.565 46.0002 148.481 43.1007C141.453 36.4946 131.149 31.6054 120.416 29.7858C115.836 29.0088 109.167 28.7666 105.599 29.247ZM56.4521 52.9965C50.5534 53.8274 45.6241 56.3974 40.625 61.2497C36.768 64.9926 34.5799 68.178 32.7521 72.7104C29.8662 79.8672 29.8737 85.897 32.7824 96.8716C34.2819 102.527 34.6337 104.595 34.6703 107.97L34.716 112.118L31.8793 117.357C27.6278 125.21 26.9866 126.642 26.3232 129.773C23.7925 141.703 36.1898 156.82 61.1389 172.225C76.7658 181.874 93.103 189.025 111.785 194.391C121.492 197.179 135.667 197.929 136.104 195.677C136.258 194.883 133.685 193.13 128.934 190.794C125.757 189.232 122.266 187.975 100.137 180.431C81.1312 173.951 74.5548 170.856 69.9658 166.232C66.8002 163.042 65.9704 161.268 65.995 157.747C66.0207 154.158 67.0467 152.123 70.8585 148.098L73.6826 145.115L72.5805 142.699C71.9743 141.369 71.0009 139.235 70.4176 137.956C67.4596 131.475 64.9358 122.603 63.7491 114.52C63.1892 110.707 63.0611 107.557 63.2149 101.421C63.4557 91.818 64.377 87.2209 67.2978 81.039C69.626 76.1107 71.2943 73.6497 74.791 69.9822C78.2264 66.3794 78.9631 65.2802 78.9631 63.7567C78.9631 62.0148 77.9342 60.6678 74.8419 58.3627C68.8259 53.8779 62.7614 52.1083 56.4521 52.9965ZM121.703 57.7944C114.442 59.2072 106.995 63.4079 101.814 69.0129C99.0829 71.9679 96.0072 76.5718 95.3323 78.7152C95.0675 79.5558 94.3709 81.7605 93.7836 83.6152C92.5111 87.6372 92.6718 87.9894 96.1335 88.7682C97.4655 89.0676 99.2487 89.666 100.096 90.0971C102.462 91.3012 107.159 95.7543 110.674 100.125C112.419 102.295 114.428 104.368 115.138 104.732C116.492 105.427 129.899 106.642 136.198 106.641C142.277 106.64 144.38 104.827 145.465 98.6469C146.306 93.8536 144.698 87.1772 141.635 82.748C136.261 74.9769 121.968 70.6458 114.68 74.5793C111.257 76.4272 109.382 79.9892 110.216 83.0611C110.849 85.3928 117.007 91.0216 120.516 92.4753C123.021 93.5139 125.769 93.3204 127.359 91.9938C129.255 90.4119 129.161 88.691 126.953 84.5573C124.982 80.8683 124.763 79.4101 126.077 78.7124C127.259 78.0857 129.715 79.2314 131.128 81.0691C132.501 82.8546 134.829 87.5351 135.16 89.1748C135.599 91.3557 134.922 93.5082 133.201 95.4015C129.011 100.011 124.078 99.8863 114.432 94.929C107.234 91.2292 103.854 86.8618 103.876 81.2897C103.918 69.951 117.283 65.0272 133.116 70.5171C141.951 73.5799 145.906 76.6779 149.126 83.0543C151.714 88.1828 152.75 92.6812 152.071 95.836C151.798 97.1059 151.063 98.9124 150.439 99.85C149.815 100.787 149.206 102.282 149.086 103.172C148.903 104.524 149.086 105.032 150.201 106.271C151.455 107.662 151.706 107.752 154.357 107.752C156.752 107.752 157.418 107.571 158.752 106.562C160.178 105.483 160.35 105.119 160.605 102.633C160.76 101.125 161.1 98.1251 161.362 95.9664C162.798 84.086 157.895 72.3236 148.29 64.6131C144.815 61.8231 138.517 58.7869 134.518 57.9742C131.048 57.2691 124.849 57.1824 121.703 57.7944ZM89.0253 64.7073C86.0977 65.6426 82.0434 68.2636 79.1781 71.074C75.336 74.8425 73.9034 78.0426 73.9011 82.8631L73.8999 85.9197L80.2424 85.8363C85.1466 85.7717 86.7313 85.6072 87.2312 85.1115C87.6104 84.7354 88.013 83.0974 88.2051 81.1513C88.6249 76.9002 90.4001 73.2407 93.6892 69.8455C96.1004 67.3572 96.5036 66.4361 95.7212 65.2098C95.2528 64.4748 90.7993 64.1407 89.0253 64.7073ZM72.8854 93.4515C71.7507 94.4242 70.771 100.076 70.0613 109.742C69.4076 118.646 69.3407 118.534 74.6526 117.349C76.66 116.901 80.7789 115.672 83.806 114.619C86.8326 113.565 92.0718 112.121 95.4473 111.41C104.068 109.593 107.287 107.698 107.287 104.439C107.287 102.755 106.054 101.521 102.181 99.3304C93.9894 94.6982 75.7118 91.0307 72.8854 93.4515ZM193.874 105.605C192.83 106.043 191.268 107.601 189.031 110.433C181.941 119.415 172.54 127.076 163.462 131.271C152.615 136.283 136.548 140.214 121.229 141.604C114.38 142.225 107.977 143.501 102.37 145.361C96.7638 147.221 94.6597 148.241 93.7412 149.542C92.821 150.845 92.8388 150.926 94.4321 152.726C97.3877 156.065 103.591 158.883 115.035 162.087C122.83 164.271 127.992 164.92 134.437 164.531C147.447 163.744 158.874 160.239 165.458 155.016C166.293 154.354 170.411 148.668 174.631 142.351C183.387 129.244 184.735 127.802 192.124 123.643C197.191 120.792 201.533 117.284 203.09 114.785C203.614 113.944 204 112.582 204 111.572C204 110.106 203.708 109.53 202.223 108.057C201.225 107.067 199.55 105.992 198.402 105.604C195.961 104.779 195.842 104.779 193.874 105.605ZM190.004 129.215C189.691 129.344 188.288 131.847 186.886 134.778C185.483 137.708 183.177 141.864 181.761 144.014C177.037 151.186 166.877 160.183 159.13 164.053C155.768 165.732 148.599 168.246 144.597 169.148C139.01 170.408 128.505 170.714 122.353 169.796C111.257 168.142 100.063 162.918 91.9323 155.602C86.2555 150.493 82.6067 149.155 77.9868 150.488C73.8136 151.69 70.1631 155.058 70.1591 157.708C70.1568 159.346 72.6497 162.806 75.6528 165.332C83.0888 171.589 100.583 177.879 120.128 181.323C123.097 181.846 128.536 183.298 132.544 184.636C141.4 187.593 146.891 188.507 153.34 188.097C174.045 186.781 188.786 173.287 192.705 152.062C194.618 141.704 194.802 132.557 193.143 130.346C192.258 129.165 191.119 128.756 190.004 129.215Z" fill="#B71017"/>
</g>
<defs>
<filter id="filter0_d_36_12" x="0" y="0" width="230" height="230" filterUnits="userSpaceOnUse" color-interpolation-filters="sRGB">
<feFlood flood-opacity="0" result="BackgroundImageFix"/>
<feColorMatrix in="SourceAlpha" type="matrix" values="0 0 0 0 0 0 0 0 0 0 0 0 0 0 0 0 0 0 127 0" result="hardAlpha"/>
<feOffset dy="2"/>
<feGaussianBlur stdDeviation="2"/>
<feComposite in2="hardAlpha" operator="out"/>
<feColorMatrix type="matrix" values="0 0 0 0 0 0 0 0 0 0 0 0 0 0 0 0 0 0 0.25 0"/>
<feBlend mode="normal" in2="BackgroundImageFix" result="effect1_dropShadow_36_12"/>
<feBlend mode="normal" in="SourceGraphic" in2="effect1_dropShadow_36_12" result="shape"/>
</filter>
<clipPath id="clip0_36_12">
<rect width="178" height="168" fill="white" transform="translate(26 29)"/>
</clipPath>
</defs>
</svg>
