<?xml version="1.0" encoding="UTF-8"?>
<svg version="1.1" xmlns="http://www.w3.org/2000/svg" width="500" height="500">
<path d="M0 0 C1.16567001 -0.00101212 1.16567001 -0.00101212 2.35488892 -0.00204468 C15.56644767 0.0161061 28.35925217 0.85358204 41.375 3.25 C42.3546875 3.42692383 43.334375 3.60384766 44.34375 3.78613281 C90.43465906 12.29590205 132.58868846 32.34070297 167.16015625 64.22265625 C169.12671378 66.02273272 171.14040802 67.7308807 173.1875 69.4375 C183.30564517 78.29087702 191.96521554 88.78733133 200.04101562 99.4921875 C201.35845197 101.2281944 202.70065079 102.9425164 204.046875 104.65625 C226.33320931 133.48195427 239.59909735 168.69001486 246.375 204.25 C246.66914795 205.73814209 246.66914795 205.73814209 246.96923828 207.25634766 C258.85219315 269.08074819 243.59122112 337.71713697 208.39453125 389.69140625 C202.76763613 397.85500905 196.8593272 405.74245787 190.375 413.25 C189.68277344 414.05308594 188.99054688 414.85617187 188.27734375 415.68359375 C178.80524845 426.42780348 168.75651395 436.53164818 157.375 445.25 C156.71822266 445.76143555 156.06144531 446.27287109 155.38476562 446.79980469 C116.48904171 476.97271854 71.82622582 492.60981991 23.375 499.25 C22.65602539 499.3538501 21.93705078 499.4577002 21.19628906 499.56469727 C-40.21943597 507.54701717 -104.6734065 485.14413151 -153.10888672 448.12304688 C-160.29526539 442.53606959 -167.0621045 436.55323594 -173.625 430.25 C-174.38707764 429.52079346 -174.38707764 429.52079346 -175.16455078 428.77685547 C-182.2027168 422.00336508 -188.6086362 414.96246636 -194.625 407.25 C-195.41390625 406.26644531 -196.2028125 405.28289062 -197.015625 404.26953125 C-214.83041085 381.87672283 -228.37685273 356.30131548 -237.625 329.25 C-237.90923828 328.42161621 -238.19347656 327.59323242 -238.48632812 326.73974609 C-254.22932311 279.21676543 -253.90722094 226.01609447 -239.625 178.25 C-239.40231445 177.49799316 -239.17962891 176.74598633 -238.95019531 175.97119141 C-229.82323929 145.71320814 -214.38716778 117.81035834 -194.625 93.25 C-194.2120166 92.73260254 -193.7990332 92.21520508 -193.37353516 91.68212891 C-182.54420083 78.20105521 -170.33058644 65.80510757 -156.625 55.25 C-155.69300781 54.48945312 -154.76101562 53.72890625 -153.80078125 52.9453125 C-116.97523137 23.42829045 -71.95460191 7.63903815 -25.625 1.25 C-24.93519043 1.146875 -24.24538086 1.04375 -23.53466797 0.9375 C-15.73841286 -0.10224824 -7.85135967 0.00613737 0 0 Z " fill="#015EB6" transform="translate(249.625,-0.25)"/>
<path d="M0 0 C1.16567001 -0.00101212 1.16567001 -0.00101212 2.35488892 -0.00204468 C15.56644767 0.0161061 28.35925217 0.85358204 41.375 3.25 C42.3546875 3.42692383 43.334375 3.60384766 44.34375 3.78613281 C90.43465906 12.29590205 132.58868846 32.34070297 167.16015625 64.22265625 C169.12671378 66.02273272 171.14040802 67.7308807 173.1875 69.4375 C183.30564517 78.29087702 191.96521554 88.78733133 200.04101562 99.4921875 C201.35845197 101.2281944 202.70065079 102.9425164 204.046875 104.65625 C226.33320931 133.48195427 239.59909735 168.69001486 246.375 204.25 C246.66914795 205.73814209 246.66914795 205.73814209 246.96923828 207.25634766 C258.85219315 269.08074819 243.59122112 337.71713697 208.39453125 389.69140625 C202.76763613 397.85500905 196.8593272 405.74245787 190.375 413.25 C189.68277344 414.05308594 188.99054688 414.85617187 188.27734375 415.68359375 C178.80524845 426.42780348 168.75651395 436.53164818 157.375 445.25 C156.71822266 445.76143555 156.06144531 446.27287109 155.38476562 446.79980469 C116.48904171 476.97271854 71.82622582 492.60981991 23.375 499.25 C22.65602539 499.3538501 21.93705078 499.4577002 21.19628906 499.56469727 C-40.21943597 507.54701717 -104.6734065 485.14413151 -153.10888672 448.12304688 C-160.29526539 442.53606959 -167.0621045 436.55323594 -173.625 430.25 C-174.38707764 429.52079346 -174.38707764 429.52079346 -175.16455078 428.77685547 C-182.2027168 422.00336508 -188.6086362 414.96246636 -194.625 407.25 C-195.41390625 406.26644531 -196.2028125 405.28289062 -197.015625 404.26953125 C-214.83041085 381.87672283 -228.37685273 356.30131548 -237.625 329.25 C-237.90923828 328.42161621 -238.19347656 327.59323242 -238.48632812 326.73974609 C-254.22932311 279.21676543 -253.90722094 226.01609447 -239.625 178.25 C-239.40231445 177.49799316 -239.17962891 176.74598633 -238.95019531 175.97119141 C-229.82323929 145.71320814 -214.38716778 117.81035834 -194.625 93.25 C-194.2120166 92.73260254 -193.7990332 92.21520508 -193.37353516 91.68212891 C-182.54420083 78.20105521 -170.33058644 65.80510757 -156.625 55.25 C-155.69300781 54.48945312 -154.76101562 53.72890625 -153.80078125 52.9453125 C-116.97523137 23.42829045 -71.95460191 7.63903815 -25.625 1.25 C-24.93519043 1.146875 -24.24538086 1.04375 -23.53466797 0.9375 C-15.73841286 -0.10224824 -7.85135967 0.00613737 0 0 Z M-151.625 83.25 C-152.99445824 84.44388667 -154.36905071 85.63192374 -155.75 86.8125 C-186.06702687 113.30130759 -208.37833499 152.22075606 -218.08691406 191.14160156 C-218.59236798 193.12213697 -219.14993601 195.08916429 -219.7109375 197.0546875 C-224.91082287 215.86028797 -225.90349574 234.96109391 -225.9375 254.375 C-225.94108521 255.2008963 -225.94467041 256.0267926 -225.94836426 256.87771606 C-225.98072379 270.72191493 -225.00650328 283.96296819 -221.390625 297.3984375 C-220.90517683 299.20648424 -220.45298672 301.02405978 -220.046875 302.8515625 C-212.58943494 336.02760996 -196.35579429 367.248501 -174.625 393.25 C-174.1403125 393.83620117 -173.655625 394.42240234 -173.15625 395.02636719 C-140.65258663 434.23814337 -98.10602564 459.91750227 -48.6875 472.125 C-47.92083008 472.31634521 -47.15416016 472.50769043 -46.36425781 472.70483398 C-32.56207022 475.88917517 -18.61422132 476.58250827 -4.50390625 476.51074219 C-1.99454782 476.49997661 0.51409984 476.51073941 3.0234375 476.5234375 C12.99230604 476.53254272 22.5205687 475.86696761 32.375 474.25 C33.35404297 474.09869629 34.33308594 473.94739258 35.34179688 473.79150391 C46.62177953 472.00169856 57.58765632 469.75076618 68.36914062 465.95507812 C70.47393068 465.21522495 72.58809749 464.50687981 74.703125 463.796875 C93.52471281 457.31774227 112.14568507 448.85449054 128.375 437.25 C129.39207031 436.53457031 130.40914063 435.81914062 131.45703125 435.08203125 C138.31276167 430.10964654 144.57578321 424.60811633 150.72412109 418.79931641 C152.50714895 417.12598089 154.30852403 415.47408493 156.11328125 413.82421875 C174.52387678 396.94532535 188.97366327 378.48747107 200.375 356.25 C200.78314941 355.46882813 201.19129883 354.68765625 201.61181641 353.8828125 C218.4125225 321.47442744 226.82625955 287.49993449 226.8125 251.125 C226.81323517 250.26648438 226.81397034 249.40796875 226.81472778 248.5234375 C226.69027196 192.56087658 206.1063933 140.84442621 168.4921875 99.5859375 C166.58419797 97.48081252 164.72452931 95.34386366 162.875 93.1875 C155.71915438 85.01408 147.88997646 77.9777421 139.375 71.25 C138.41078125 70.45722656 137.4465625 69.66445312 136.453125 68.84765625 C117.58552242 53.69132067 95.56961497 43.54177872 72.70751953 36.02294922 C70.61795188 35.33050928 68.54098103 34.6103644 66.46484375 33.87890625 C49.01871615 27.99015025 29.82073849 24.10813227 11.37109375 24.08203125 C10.10967308 24.07703865 10.10967308 24.07703865 8.82276917 24.07194519 C7.05039003 24.06691005 5.27800152 24.0645358 3.50561523 24.06469727 C0.84407184 24.06252576 -1.81704612 24.04437471 -4.47851562 24.02539062 C-59.34817588 23.83692855 -111.82932728 45.93340198 -151.625 83.25 Z " fill="#F6A905" transform="translate(249.625,-0.25)"/>
<path d="M0 0 C1.16567001 -0.00101212 1.16567001 -0.00101212 2.35488892 -0.00204468 C15.56644767 0.0161061 28.35925217 0.85358204 41.375 3.25 C42.3546875 3.42692383 43.334375 3.60384766 44.34375 3.78613281 C90.43465906 12.29590205 132.58868846 32.34070297 167.16015625 64.22265625 C169.12671378 66.02273272 171.14040802 67.7308807 173.1875 69.4375 C183.30564517 78.29087702 191.96521554 88.78733133 200.04101562 99.4921875 C201.35845197 101.2281944 202.70065079 102.9425164 204.046875 104.65625 C226.33320931 133.48195427 239.59909735 168.69001486 246.375 204.25 C246.66914795 205.73814209 246.66914795 205.73814209 246.96923828 207.25634766 C258.85219315 269.08074819 243.59122112 337.71713697 208.39453125 389.69140625 C202.76763613 397.85500905 196.8593272 405.74245787 190.375 413.25 C189.68277344 414.05308594 188.99054688 414.85617187 188.27734375 415.68359375 C178.80524845 426.42780348 168.75651395 436.53164818 157.375 445.25 C156.71822266 445.76143555 156.06144531 446.27287109 155.38476562 446.79980469 C116.48904171 476.97271854 71.82622582 492.60981991 23.375 499.25 C22.65602539 499.3538501 21.93705078 499.4577002 21.19628906 499.56469727 C-40.21943597 507.54701717 -104.6734065 485.14413151 -153.10888672 448.12304688 C-160.29526539 442.53606959 -167.0621045 436.55323594 -173.625 430.25 C-174.38707764 429.52079346 -174.38707764 429.52079346 -175.16455078 428.77685547 C-182.2027168 422.00336508 -188.6086362 414.96246636 -194.625 407.25 C-195.41390625 406.26644531 -196.2028125 405.28289062 -197.015625 404.26953125 C-214.83041085 381.87672283 -228.37685273 356.30131548 -237.625 329.25 C-237.90923828 328.42161621 -238.19347656 327.59323242 -238.48632812 326.73974609 C-254.22932311 279.21676543 -253.90722094 226.01609447 -239.625 178.25 C-239.40231445 177.49799316 -239.17962891 176.74598633 -238.95019531 175.97119141 C-229.82323929 145.71320814 -214.38716778 117.81035834 -194.625 93.25 C-194.2120166 92.73260254 -193.7990332 92.21520508 -193.37353516 91.68212891 C-182.54420083 78.20105521 -170.33058644 65.80510757 -156.625 55.25 C-155.69300781 54.48945312 -154.76101562 53.72890625 -153.80078125 52.9453125 C-116.97523137 23.42829045 -71.95460191 7.63903815 -25.625 1.25 C-24.93519043 1.146875 -24.24538086 1.04375 -23.53466797 0.9375 C-15.73841286 -0.10224824 -7.85135967 0.00613737 0 0 Z M-161.26171875 71.07421875 C-162.87074789 72.55558938 -164.49935634 74.01590904 -166.14453125 75.45703125 C-200.02381536 105.17296247 -224.16053829 148.88770367 -234.4375 192.4375 C-234.7277002 193.65993408 -235.01790039 194.88236816 -235.31689453 196.1418457 C-239.39263878 214.12200949 -240.06590458 231.49941281 -240.0625 249.875 C-240.0635675 251.09555084 -240.06463501 252.31610168 -240.06573486 253.57363892 C-240.04208422 272.29681014 -239.24236227 290.03961084 -234.625 308.25 C-234.39506348 309.18054199 -234.16512695 310.11108398 -233.92822266 311.06982422 C-232.44152898 316.90401843 -230.65509622 322.5836432 -228.625 328.25 C-228.34849609 329.03391113 -228.07199219 329.81782227 -227.78710938 330.62548828 C-218.60859828 356.18753809 -205.12484489 380.4556499 -187.625 401.25 C-186.10329624 403.12429365 -184.58249285 404.99931859 -183.0625 406.875 C-181.58658622 408.66934723 -180.10761842 410.46118864 -178.625 412.25 C-178.0165625 412.98476563 -177.408125 413.71953125 -176.78125 414.4765625 C-173.37529208 418.48630387 -169.7875022 422.01518013 -165.7734375 425.4140625 C-163.44004533 427.40805217 -161.19361914 429.48161341 -158.9375 431.5625 C-148.59852065 440.86127716 -137.33217862 448.78561293 -125.625 456.25 C-124.99706543 456.65718262 -124.36913086 457.06436523 -123.72216797 457.48388672 C-104.39698756 469.91531816 -82.63859798 477.97814275 -60.625 484.25 C-59.89104004 484.46237305 -59.15708008 484.67474609 -58.40087891 484.89355469 C-40.55991443 489.9791214 -22.86960396 490.60005726 -4.42480469 490.56567383 C-0.89486655 490.56251776 2.63422744 490.58604488 6.1640625 490.61132812 C19.424919 490.64751371 32.1909508 489.89630208 45.26097107 487.61613464 C47.2894674 487.26481363 49.32027379 486.94541604 51.35571289 486.63720703 C91.06516035 480.41583292 132.95234269 456.3614388 162.15625 429.2578125 C163.70614996 427.85526218 165.31121491 426.51237613 166.953125 425.21875 C169.11462767 423.4616575 170.83688754 421.74725469 172.625 419.625 C175.1854637 416.61947716 177.81102861 413.70339049 180.5 410.8125 C201.41190448 387.58496726 216.63787794 361.19689322 227.390625 331.92700195 C228.04980707 330.13436024 228.72182843 328.34639041 229.40625 326.56323242 C231.9832753 319.75138537 233.84897775 312.90141297 235.5 305.8125 C235.75136719 304.77029297 236.00273437 303.72808594 236.26171875 302.65429688 C250.63996747 241.94195348 239.2692078 177.84580711 207.0859375 124.57421875 C195.27899372 105.51467749 180.57646928 86.66758583 163.375 72.25 C162.36916574 71.36155299 161.36543499 70.47072151 160.36328125 69.578125 C130.45161311 43.1199862 92.96305127 23.26038919 53.9375 14.5625 C53.03273926 14.35979492 52.12797852 14.15708984 51.19580078 13.94824219 C34.75436728 10.45651424 18.69194518 9.84928407 1.92578125 9.82446289 C-1.8262026 9.81265359 -5.57649038 9.76340856 -9.328125 9.71289062 C-66.01974132 9.33585926 -119.79189413 32.86225269 -161.26171875 71.07421875 Z " fill="#1669B6" transform="translate(249.625,-0.25)"/>
<path d="M0 0 C0.99 0.495 0.99 0.495 2 1 C2.67784992 3.33010909 3.34416793 5.66359824 4 8 C4.99 8.99 4.99 8.99 6 10 C6.4140625 12.3828125 6.4140625 12.3828125 6.625 15.125 C6.73714844 16.49011719 6.73714844 16.49011719 6.8515625 17.8828125 C6.90054688 18.58148438 6.94953125 19.28015625 7 20 C7.99 20 8.98 20 10 20 C10 29.57 10 39.14 10 49 C17.08396594 47.82774048 17.08396594 47.82774048 24 46 C24 46.99 24 47.98 24 49 C24.99 49 25.98 49 27 49 C27 47.02 27 45.04 27 43 C31.62 43 36.24 43 41 43 C41.33 44.65 41.66 46.3 42 48 C42.66644531 47.95359375 43.33289063 47.9071875 44.01953125 47.859375 C51.42845523 47.56923532 57.26359387 48.9052304 64 52 C65 53 65 53 65.02172852 55.95922852 C64.97459717 57.25272217 64.92746582 58.54621582 64.87890625 59.87890625 C64.85529526 60.5655687 64.83168427 61.25223114 64.80735779 61.95970154 C64.7305582 64.16083628 64.64660497 66.36163344 64.5625 68.5625 C64.50929557 70.05141557 64.45655507 71.54034779 64.40429688 73.02929688 C64.27492148 76.68640673 64.13912762 80.34324672 64 84 C67.465 83.505 67.465 83.505 71 83 C71.01417969 82.38511719 71.02835938 81.77023437 71.04296875 81.13671875 C71.18870421 78.66709351 71.38817659 76.39956272 72 74 C72.825 73.54625 73.65 73.0925 74.5 72.625 C75.325 72.08875 76.15 71.5525 77 71 C77.77003873 67.34641197 77.93039901 63.72681688 78 60 C78.88751953 59.70996094 78.88751953 59.70996094 79.79296875 59.4140625 C80.58316406 59.15367187 81.37335938 58.89328125 82.1875 58.625 C82.96480469 58.36976563 83.74210937 58.11453125 84.54296875 57.8515625 C87.03123546 57.0226104 87.03123546 57.0226104 89.50390625 55.921875 C99.20073561 52.34057339 110.45192816 56.49265171 120 59 C120.33 62.96 120.66 66.92 121 71 C121.99 71.33 122.98 71.66 124 72 C124.33 59.13 124.66 46.26 125 33 C125.66 33 126.32 33 127 33 C127.12117188 32.15695312 127.24234375 31.31390625 127.3671875 30.4453125 C127.53476562 29.34960938 127.70234375 28.25390625 127.875 27.125 C128.11863281 25.48917969 128.11863281 25.48917969 128.3671875 23.8203125 C129 21 129 21 131 19 C131.433125 20.5159375 131.433125 20.5159375 131.875 22.0625 C132.14763672 23.01189453 132.14763672 23.01189453 132.42578125 23.98046875 C132.80507941 25.31446296 133.17761439 26.65040089 133.54296875 27.98828125 C134.24911745 31.26393826 134.24911745 31.26393826 136 34 C136.09326716 35.56547048 136.11745582 37.13512772 136.11352539 38.70336914 C136.11344986 39.70433121 136.11337433 40.70529327 136.11329651 41.73658752 C136.10813522 42.8251152 136.10297394 43.91364288 136.09765625 45.03515625 C136.09553383 46.6977372 136.09553383 46.6977372 136.09336853 48.39390564 C136.08775033 51.95013069 136.07519475 55.50629383 136.0625 59.0625 C136.05748734 61.46679597 136.05292403 63.87109292 136.04882812 66.27539062 C136.03777499 72.18361504 136.02101917 78.0918031 136 84 C136.65484375 83.98952637 137.3096875 83.97905273 137.984375 83.96826172 C140.98954332 83.92634641 143.99464984 83.90056191 147 83.875 C148.02996094 83.85824219 149.05992187 83.84148437 150.12109375 83.82421875 C158.10932762 83.77333828 165.28248381 84.17178524 172 89 C172 89.33 172 89.66 172 90 C56.5 90 -59 90 -178 90 C-176 87 -176 87 -174.12036133 86.30908203 C-166.67295595 84.95866456 -159.2368125 84.35344993 -151.6875 83.875 C-150.45837891 83.78863281 -149.22925781 83.70226562 -147.96289062 83.61328125 C-139.96209898 83.08130249 -132.01651213 82.91437612 -124 83 C-124.00444122 82.3596431 -124.00888245 81.71928619 -124.01345825 81.05952454 C-124.0577188 74.39232617 -124.08787783 67.72516958 -124.10986328 61.05786133 C-124.11991832 58.56988835 -124.13356416 56.08192718 -124.15087891 53.59399414 C-124.17514866 50.01706019 -124.18648819 46.44028255 -124.1953125 42.86328125 C-124.20563507 41.75165115 -124.21595764 40.64002106 -124.22659302 39.4947052 C-124.22681961 37.93365303 -124.22681961 37.93365303 -124.22705078 36.34106445 C-124.231492 35.4283931 -124.23593323 34.51572174 -124.24050903 33.57539368 C-123.97565816 30.73934529 -123.17486628 28.58161072 -122 26 C-121.505 26.99 -121.505 26.99 -121 28 C-118.9754262 26.06745228 -117.57894208 24.36841312 -116 22 C-115.01 22.33 -114.02 22.66 -113 23 C-111.67713754 27.96073422 -111.91106803 32.91111512 -112 38 C-109.36 38 -106.72 38 -104 38 C-104.02320313 37.37351562 -104.04640625 36.74703125 -104.0703125 36.1015625 C-104.08835937 35.28429687 -104.10640625 34.46703125 -104.125 33.625 C-104.14820313 32.81289063 -104.17140625 32.00078125 -104.1953125 31.1640625 C-104 29 -104 29 -102 27 C-101 28 -101 28 -100.90234375 30.28515625 C-100.93489583 32.85677083 -100.96744792 35.42838542 -101 38 C-96.71 38 -92.42 38 -88 38 C-88.020625 36.700625 -88.04125 35.40125 -88.0625 34.0625 C-88.08399454 32.70834367 -88.07148199 31.35243917 -88 30 C-87 29 -87 29 -84.4375 28.9375 C-83.2309375 28.9684375 -83.2309375 28.9684375 -82 29 C-81.00706191 31.97881427 -80.87880215 33.91487239 -80.88647461 37.0222168 C-80.88658791 38.55346443 -80.88658791 38.55346443 -80.88670349 40.11564636 C-80.89186478 41.21572525 -80.89702606 42.31580414 -80.90234375 43.44921875 C-80.9037587 44.5769722 -80.90517365 45.70472565 -80.90663147 46.86665344 C-80.9122353 50.47362912 -80.92478847 54.08054304 -80.9375 57.6875 C-80.94251451 60.13085848 -80.9470775 62.57421793 -80.95117188 65.01757812 C-80.96220597 71.01173987 -80.97894785 77.00586552 -81 83 C-80.28714844 82.98839844 -79.57429688 82.97679687 -78.83984375 82.96484375 C-73.43674634 82.91393974 -68.32171525 83.05391729 -63 84 C-63.06171387 83.08186523 -63.12342773 82.16373047 -63.18701172 81.21777344 C-63.40171584 77.80410757 -63.58856775 74.39124512 -63.75683594 70.97509766 C-63.83526516 69.49823003 -63.92469064 68.02190312 -64.02539062 66.54638672 C-64.16844543 64.42202288 -64.27154612 62.29883628 -64.3671875 60.171875 C-64.47716064 58.2552002 -64.47716064 58.2552002 -64.58935547 56.29980469 C-64 53 -64 53 -61.1640625 50.57617188 C-57.78435276 48.89257573 -55.85746793 48.56792839 -52.125 48.75 C-51.15820312 48.78609375 -50.19140625 48.8221875 -49.1953125 48.859375 C-48.47085938 48.90578125 -47.74640625 48.9521875 -47 49 C-47.103125 47.80375 -47.20625 46.6075 -47.3125 45.375 C-47.32456826 41.9838186 -46.81080846 40.15731418 -44.6875 37.5 C-42 35 -42 35 -39 35 C-39 32.69 -39 30.38 -39 28 C-37.68 27.34 -36.36 26.68 -35 26 C-34.88785156 26.90492188 -34.88785156 26.90492188 -34.7734375 27.828125 C-34.35942664 30.34466162 -33.9035335 32.61149247 -33 35 C-31.453125 35.9590625 -31.453125 35.9590625 -29.875 36.9375 C-28.92625 37.618125 -27.9775 38.29875 -27 39 C-26.4620571 42.38366082 -26.64983742 45.60212604 -27 49 C-26.01 49 -25.02 49 -24 49 C-23.67 48.01 -23.34 47.02 -23 46 C-22.34 46.33 -21.68 46.66 -21 47 C-21 47.66 -21 48.32 -21 49 C-17.04 49 -13.08 49 -9 49 C-9 39.43 -9 29.86 -9 20 C-8.01 20.33 -7.02 20.66 -6 21 C-6.03480469 20.39671875 -6.06960937 19.7934375 -6.10546875 19.171875 C-6.27095855 14.28598558 -6.29395239 11.78194534 -3 8 C-1.86655868 5.37062035 -0.94684821 2.7052806 0 0 Z " fill="#F9FBFC" transform="translate(253,259)"/>
<path d="M0 0 C4.95 0 9.9 0 15 0 C16.31843111 3.95529333 17.33746915 7.29741321 18.0625 11.3125 C18.43353598 14.4518212 18.43353598 14.4518212 20 17 C20.27714844 15.85660156 20.55429688 14.71320313 20.83984375 13.53515625 C21.20554378 12.04422535 21.57143929 10.55334239 21.9375 9.0625 C22.11990234 8.30775391 22.30230469 7.55300781 22.49023438 6.77539062 C23.88671875 1.11328125 23.88671875 1.11328125 25 0 C27.35313555 -0.07271741 29.70833668 -0.08370868 32.0625 -0.0625 C33.35285156 -0.05347656 34.64320313 -0.04445313 35.97265625 -0.03515625 C36.97167969 -0.02355469 37.97070312 -0.01195313 39 0 C41.38804005 13.07625816 42.16302249 25.74083758 42 39 C38.37 39 34.74 39 31 39 C31 31.74 31 24.48 31 17 C30.34 17 29.68 17 29 17 C28.83564453 17.94359375 28.83564453 17.94359375 28.66796875 18.90625 C27.61950734 24.56623682 26.17168983 29.6694886 24 35 C20.7 35 17.4 35 14 35 C13.32532438 33.25307205 12.66055844 31.50231475 12 29.75 C11.62875 28.77546875 11.2575 27.8009375 10.875 26.796875 C10 24 10 24 10 20 C9.34 20 8.68 20 8 20 C8.01160156 20.78503906 8.02320312 21.57007813 8.03515625 22.37890625 C8.08375507 28.03719775 8.01294749 33.42878878 7 39 C3.7 39 0.4 39 -3 39 C-3.09474702 31.30654173 -2.77107681 23.78366001 -2.0625 16.125 C-1.97548828 15.11953125 -1.88847656 14.1140625 -1.79882812 13.078125 C-1.39954198 8.61795088 -0.88114442 4.40572209 0 0 Z " fill="#F5F9FB" transform="translate(101,128)"/>
<path d="M0 0 C5.28039328 3.84028602 9.18286246 6.77664868 10.3671875 13.5078125 C10.64444699 21.58095655 9.83332009 28.52125871 4.75 35 C0.42728888 39.4858323 -3.81530218 40.32013882 -9.9375 40.5 C-14.64061741 40.45494019 -17.42904947 39.7770826 -21.25 37 C-27.6682609 29.98469158 -28.6678818 25.83713557 -28.4921875 16.41796875 C-28.05794748 10.28958131 -26.39391338 6.81315902 -21.8125 2.625 C-15.85812746 -2.35695824 -7.16618681 -2.20498056 0 0 Z " fill="#F2F6FB" transform="translate(333.25,128)"/>
<path d="M0 0 C4.62 0 9.24 0 14 0 C16.97 5.28 19.94 10.56 23 16 C23.66 10.72 24.32 5.44 25 0 C28.3 0 31.6 0 35 0 C35 12.87 35 25.74 35 39 C30.71 39 26.42 39 22 39 C19.03 33.72 16.06 28.44 13 23 C12.34 28.28 11.68 33.56 11 39 C7.37 39 3.74 39 0 39 C0 26.13 0 13.26 0 0 Z " fill="#F6AA04" transform="translate(205,192)"/>
<path d="M0 0 C5.7234375 -0.12375 5.7234375 -0.12375 11.5625 -0.25 C12.75174072 -0.28641602 13.94098145 -0.32283203 15.16625977 -0.36035156 C21.70187067 -0.42857412 25.69191077 0.09896388 31 4 C32.714468 5.714468 32.21251477 7.91342066 32.25 10.25 C32.22634962 14.83226093 31.61245924 17.19016361 29 21 C28.45480184 24.13488945 28.41138481 26.05985073 30.125 28.796875 C31.01950235 29.98615653 31.94572308 31.15243897 32.90625 32.2890625 C34 34 34 34 34 38 C29.87877002 39.99817211 26.56236123 40.58066416 22 40 C18.92622588 37.09237583 17.2683037 34.01629506 16 30 C16 29.01 16 28.02 16 27 C14.68 27 13.36 27 12 27 C12 30.96 12 34.92 12 39 C8.04 39 4.08 39 0 39 C0 26.13 0 13.26 0 0 Z " fill="#F6AA05" transform="translate(304,192)"/>
<path d="M0 0 C3.67125 -0.061875 7.3425 -0.12375 11.125 -0.1875 C12.84420654 -0.22846802 12.84420654 -0.22846802 14.59814453 -0.27026367 C20.10858701 -0.31519363 24.3246822 -0.28805137 29 3 C32.10129802 7.65194703 31.63162937 12.55036056 31 18 C29 21.25 29 21.25 27 23 C28.36388686 27.09166058 30.4064136 30.02995722 33.07421875 33.3515625 C33.37972656 33.89554688 33.68523437 34.43953125 34 35 C33 38 33 38 31.4375 39.1875 C27.71743436 40.42752188 24.93203924 40.37447993 21 40 C18.93637347 38.23117726 18.1969449 36.41568288 17.046875 33.98828125 C16.52867187 32.91126953 16.52867187 32.91126953 16 31.8125 C15.690625 31.11769531 15.38125 30.42289063 15.0625 29.70703125 C14.03941237 27.65852121 14.03941237 27.65852121 11 27 C11 30.96 11 34.92 11 39 C7.37 39 3.74 39 0 39 C0 26.13 0 13.26 0 0 Z " fill="#F9FBFD" transform="translate(219,128)"/>
<path d="M0 0 C3.63 0 7.26 0 11 0 C11.83779436 9.70943816 12.12276617 19.26055028 12 29 C15.465 28.505 15.465 28.505 19 28 C19.66 18.76 20.32 9.52 21 0 C24.96 0 28.92 0 33 0 C33.09938095 4.16253275 33.17170617 8.32442479 33.21972656 12.48779297 C33.23975843 13.90197795 33.26699248 15.31608097 33.30175781 16.72998047 C33.35065489 18.77071419 33.37305123 20.8103469 33.390625 22.8515625 C33.41157227 24.07697754 33.43251953 25.30239258 33.45410156 26.56494141 C32.91044713 30.67742411 31.57683914 32.78865392 29 36 C22.47154001 40.50774619 16.84045003 40.70583127 9 40 C6.32438221 38.98787492 5.15518685 37.98504052 3 36 C2.46205811 35.61481201 1.92411621 35.22962402 1.36987305 34.83276367 C-0.77143704 31.96788846 -0.36818674 28.91961601 -0.29296875 25.48828125 C-0.28872391 24.76005661 -0.28447906 24.03183197 -0.28010559 23.28153992 C-0.26332733 20.95814873 -0.22567855 18.6356285 -0.1875 16.3125 C-0.17245197 14.73634066 -0.15876377 13.16016771 -0.14648438 11.58398438 C-0.11342685 7.72232123 -0.06165194 3.86130822 0 0 Z " fill="#F6A905" transform="translate(165,192)"/>
<path d="M0 0 C1.39456452 0.00667256 2.78911118 0.01863093 4.18359375 0.03515625 C4.89451172 0.03966797 5.60542969 0.04417969 6.33789062 0.04882812 C8.09899388 0.06064761 9.86005411 0.07858362 11.62109375 0.09765625 C13.73466358 5.56336014 15.56810313 11.0288719 17.18359375 16.66015625 C17.39177734 17.37623047 17.59996094 18.09230469 17.81445312 18.83007812 C18.22450212 20.24275477 18.6318045 21.65623203 19.03613281 23.07055664 C19.59622644 25.01148209 20.18038426 26.94541465 20.765625 28.87890625 C21.70191262 32.40174185 21.76921938 35.46857842 21.62109375 39.09765625 C17.66109375 39.09765625 13.70109375 39.09765625 9.62109375 39.09765625 C9.29109375 36.78765625 8.96109375 34.47765625 8.62109375 32.09765625 C4.99109375 32.09765625 1.36109375 32.09765625 -2.37890625 32.09765625 C-2.35828125 33.06703125 -2.33765625 34.03640625 -2.31640625 35.03515625 C-2.37890625 38.09765625 -2.37890625 38.09765625 -3.37890625 39.09765625 C-5.39854824 39.17009678 -7.42057749 39.18142813 -9.44140625 39.16015625 C-10.54613281 39.15113281 -11.65085938 39.14210937 -12.7890625 39.1328125 C-14.07103516 39.11541016 -14.07103516 39.11541016 -15.37890625 39.09765625 C-13.98204296 30.6512485 -11.4741771 22.65962165 -8.81640625 14.53515625 C-8.39995414 13.24037468 -7.98393562 11.94545358 -7.56835938 10.65039062 C-4.15508929 0.12008929 -4.15508929 0.12008929 0 0 Z " fill="#F3F7FB" transform="translate(160.37890625,127.90234375)"/>
<path d="M0 0 C3.856875 -0.061875 7.71375 -0.12375 11.6875 -0.1875 C13.4986731 -0.22846802 13.4986731 -0.22846802 15.34643555 -0.27026367 C16.308479 -0.27775635 17.27052246 -0.28524902 18.26171875 -0.29296875 C19.24100342 -0.3086792 20.22028809 -0.32438965 21.22924805 -0.34057617 C25.16607363 0.14333181 27.66275434 2.00293087 30.78125 4.328125 C33.55091904 8.12754279 32.61332351 13.56916753 32 18 C30.36758864 21.8492663 27.90058781 24.20233652 24.8125 26.9375 C20.49828735 28.56731367 16.59236129 28.18369445 12 28 C12 31.63 12 35.26 12 39 C8.04 39 4.08 39 0 39 C0 26.13 0 13.26 0 0 Z " fill="#F7AA05" transform="translate(268,192)"/>
<path d="M0 0 C9.24 0 18.48 0 28 0 C28 2.97 28 5.94 28 9 C22.72 9 17.44 9 12 9 C12 10.98 12 12.96 12 15 C15.96 15 19.92 15 24 15 C24 17.97 24 20.94 24 24 C19.71 24 15.42 24 11 24 C11 25.98 11 27.96 11 30 C16.61 30 22.22 30 28 30 C28 32.97 28 35.94 28 39 C18.76 39 9.52 39 0 39 C0 26.13 0 13.26 0 0 Z " fill="#FCFDFE" transform="translate(375,128)"/>
<path d="M0 0 C1.85625 -0.00386719 1.85625 -0.00386719 3.75 -0.0078125 C7 0.125 7 0.125 10 1.125 C9.34 4.755 8.68 8.385 8 12.125 C3.71 12.125 -0.58 12.125 -5 12.125 C-5.02692484 14.41660319 -5.04636124 16.70829546 -5.0625 19 C-5.07410156 20.27617187 -5.08570313 21.55234375 -5.09765625 22.8671875 C-5.23176569 26.01164652 -5.23176569 26.01164652 -4 28.125 C-0.95418731 28.59454261 -0.95418731 28.59454261 2.5625 28.75 C4.35880859 28.86214844 4.35880859 28.86214844 6.19140625 28.9765625 C7.11824219 29.02554688 8.04507812 29.07453125 9 29.125 C8.85962479 30.93793089 8.71255111 32.7503443 8.5625 34.5625 C8.48128906 35.57183594 8.40007812 36.58117187 8.31640625 37.62109375 C8 40.125 8 40.125 7 41.125 C-0.57409017 41.79358299 -7.88759942 42.3396735 -14.38671875 37.90234375 C-19.36302441 32.41997311 -20.6534237 27.75423574 -20.5 20.5625 C-20.51546875 19.83353516 -20.5309375 19.10457031 -20.546875 18.35351562 C-20.5038837 12.38309855 -18.61308967 8.81475734 -14.40234375 4.48046875 C-9.42841461 0.51458925 -6.27839729 -0.01307999 0 0 Z " fill="#F0F6FA" transform="translate(294,126.875)"/>
<path d="M0 0 C9.9 0 19.8 0 30 0 C29.67 2.97 29.34 5.94 29 9 C26.36 9 23.72 9 21 9 C21 18.9 21 28.8 21 39 C17.04 39 13.08 39 9 39 C9 29.1 9 19.2 9 9 C6.03 9 3.06 9 0 9 C0 6.03 0 3.06 0 0 Z " fill="#F7F9FC" transform="translate(184,128)"/>
<path d="M0 0 C3.96 0 7.92 0 12 0 C12 9.57 12 19.14 12 29 C15.96 29 19.92 29 24 29 C24 32.3 24 35.6 24 39 C16.08 39 8.16 39 0 39 C0 26.13 0 13.26 0 0 Z " fill="#F6F9FC" transform="translate(347,128)"/>
<path d="M0 0 C3.96 0 7.92 0 12 0 C12 12.87 12 25.74 12 39 C8.04 39 4.08 39 0 39 C0 26.13 0 13.26 0 0 Z " fill="#F8AA04" transform="translate(248,192)"/>
<path d="M0 0 C3.96 0 7.92 0 12 0 C12 12.87 12 25.74 12 39 C8.04 39 4.08 39 0 39 C0 26.13 0 13.26 0 0 Z " fill="#F6F9FC" transform="translate(257,128)"/>
<path d="M0 0 C2.0078125 0.328125 2.0078125 0.328125 3.7421875 1.37890625 C5.67115533 4.34975485 5.44188382 7.34277003 5.3828125 10.765625 C5.39054687 12.08433594 5.39828125 13.40304688 5.40625 14.76171875 C5.0014688 18.3849073 4.64355117 19.86562737 2.0078125 22.328125 C-0.9921875 22.765625 -0.9921875 22.765625 -3.9921875 22.328125 C-6.04001483 20.77395962 -6.88803079 19.90583803 -7.34863281 17.35107422 C-7.33928711 16.61904785 -7.32994141 15.88702148 -7.3203125 15.1328125 C-7.31515625 14.33488281 -7.31 13.53695312 -7.3046875 12.71484375 C-7.2840625 11.88597656 -7.2634375 11.05710938 -7.2421875 10.203125 C-7.23703125 9.36652344 -7.231875 8.52992188 -7.2265625 7.66796875 C-7.13055149 0.26311998 -7.13055149 0.26311998 0 0 Z " fill="#0C65BA" transform="translate(324.9921875,136.671875)"/>
<path d="M0 0 C6.875 0.875 6.875 0.875 8 2 C8.1875 5.4375 8.1875 5.4375 8 9 C6 11 6 11 2.875 11.125 C1.451875 11.063125 1.451875 11.063125 0 11 C0 7.37 0 3.74 0 0 Z " fill="#2274C1" transform="translate(230,136)"/>
<path d="M0 0 C1.65 0 3.3 0 5 0 C7 2 7 2 7.23046875 3.91015625 C7.11111111 9.88888889 7.11111111 9.88888889 6 11 C4.00041636 11.04080783 1.99954746 11.04254356 0 11 C0 7.37 0 3.74 0 0 Z " fill="#0760B1" transform="translate(280,200)"/>
<path d="M0 0 C1.65 0 3.3 0 5 0 C7 2 7 2 7.1875 5.5625 C7 9 7 9 6 10 C4.00041636 10.04080783 1.99954746 10.04254356 0 10 C0 6.7 0 3.4 0 0 Z " fill="#0760B1" transform="translate(316,200)"/>
<path d="M0 0 C0.99 0.33 1.98 0.66 3 1 C4.61729417 4.67566856 4.06546005 9.07239675 4 13 C1.69 13 -0.62 13 -3 13 C-2.68991116 11.39536551 -2.37683713 9.79130769 -2.0625 8.1875 C-1.88847656 7.29417969 -1.71445313 6.40085938 -1.53515625 5.48046875 C-1 3 -1 3 0 0 Z " fill="#307CC5" transform="translate(163,139)"/>
<path d="M0 0 C0.33 0.66 0.66 1.32 1 2 C1.99 1.67 2.98 1.34 4 1 C4 3.64 4 6.28 4 9 C2.02 9.33 0.04 9.66 -2 10 C-1.85950482 8.52031676 -1.71245174 7.04125484 -1.5625 5.5625 C-1.48128906 4.73878906 -1.40007812 3.91507812 -1.31640625 3.06640625 C-1 1 -1 1 0 0 Z " fill="#C3D7EB" transform="translate(131,285)"/>
<path d="M0 0 C1.2065625 0.0309375 1.2065625 0.0309375 2.4375 0.0625 C3.72067892 3.91203676 3.50393637 7.00988135 3.4375 11.0625 C3.1075 11.0625 2.7775 11.0625 2.4375 11.0625 C2.1075 9.4125 1.7775 7.7625 1.4375 6.0625 C-0.2125 6.0625 -1.8625 6.0625 -3.5625 6.0625 C-3.605221 4.39638095 -3.60313832 2.72867115 -3.5625 1.0625 C-2.5625 0.0625 -2.5625 0.0625 0 0 Z " fill="#C8DBED" transform="translate(168.5625,287.9375)"/>
<path d="M0 0 C0.99 0.33 1.98 0.66 3 1 C3.33 3.97 3.66 6.94 4 10 C3.67 9.34 3.34 8.68 3 8 C2.01 8.33 1.02 8.66 0 9 C-1.125 6.1875 -1.125 6.1875 -2 3 C-1.34 2.01 -0.68 1.02 0 0 Z " fill="#BCD3E9" transform="translate(137,281)"/>
</svg>
